<svg xmlns="http://www.w3.org/2000/svg" viewBox="0 0 226.8 113.4"><g fill="#ffffff"><path d="M69.1 94.7h-22V21l21.8-.2S179 21 179 57.8c.1 36.9-109.9 36.9-109.9 36.9zm-5.8-83l-42.8.1V104h51.9s134.8-.9 134.8-46.1c0-45.3-143.9-46.2-143.9-46.2z"/><path d="M66.7 67.5H62V46h4.7S78 46.6 78 56.7 66.7 67.5 66.7 67.5zm-1.1-24.2H59v27.1h6.6s15.9 0 15.9-13.6c0 0-.5-13.5-15.9-13.5zM95.4 51.7c5.8 0 6.3 5.5 6.3 5.5H88.9s.6-5.5 6.5-5.5zM89 59.2h15.2c0-9.7-8.5-10-8.5-10s-9.4-.4-9.4 10.6c0 12.7 15.3 10.5 15.3 10.5l.9-2.4C88.2 70.1 89 59.2 89 59.2zM110 41.1h2.7v29H110zM135.4 50.1l-7.3 16.5-7.1-16.5-2.9.1 8.7 19.5-4.1 9.1h2.7l12.8-28.6z"/><path d="M146.1 52.8v-2.7h-2.7v20h2.7V55c.7-.8 2.5-2.5 5.6-3.1 4.1-.7 5.5 1.1 5.5 4.4v13.4h2.7V54.5c-.1 0-.8-10.4-13.8-1.7z" class="st0"/></g></svg>